<?xml version="1.0" encoding="UTF-8"?>
<!DOCTYPE svg PUBLIC "-//W3C//DTD SVG 1.1//EN" "http://www.w3.org/Graphics/SVG/1.1/DTD/svg11.dtd">
<svg xmlns="http://www.w3.org/2000/svg" version="1.1" width="932px" height="238px" style="shape-rendering:geometricPrecision; text-rendering:geometricPrecision; image-rendering:optimizeQuality; fill-rule:evenodd; clip-rule:evenodd" xmlns:xlink="http://www.w3.org/1999/xlink">
<g><path style="opacity:1" fill="#fefefe" d="M -0.5,-0.5 C 310.167,-0.5 620.833,-0.5 931.5,-0.5C 931.5,78.8333 931.5,158.167 931.5,237.5C 620.833,237.5 310.167,237.5 -0.5,237.5C -0.5,158.167 -0.5,78.8333 -0.5,-0.5 Z"/></g>
<g><path style="opacity:1" fill="#e9cf9f" d="M 117.5,9.5 C 118.183,11.1765 119.517,11.8432 121.5,11.5C 134.167,14.8333 142.167,22.8333 145.5,35.5C 145.5,41.5 145.5,47.5 145.5,53.5C 145.309,59.2151 142.976,63.8818 138.5,67.5C 137.571,68.6888 137.238,70.0222 137.5,71.5C 131.797,74.6818 125.797,77.3485 119.5,79.5C 114.167,79.5 108.833,79.5 103.5,79.5C 97.7849,79.3091 93.1182,76.9758 89.5,72.5C 88.3112,71.5713 86.9778,71.238 85.5,71.5C 85.762,70.0222 85.4287,68.6888 84.5,67.5C 78.1565,60.8084 75.1565,52.8084 75.5,43.5C 77.369,41.3647 78.0356,38.6981 77.5,35.5C 79.1708,27.8525 83.1708,21.5192 89.5,16.5C 93.5,14.5 97.5,12.5 101.5,10.5C 106.792,9.50515 112.125,9.17182 117.5,9.5 Z"/></g>
<g><path style="opacity:1" fill="#f2e2c5" d="M 117.5,9.5 C 119.483,9.15684 120.817,9.82351 121.5,11.5C 119.517,11.8432 118.183,11.1765 117.5,9.5 Z"/></g>
<g><path style="opacity:1" fill="#ebd1d0" d="M 303.5,11.5 C 302.167,11.5 300.833,11.5 299.5,11.5C 299.62,10.4138 300.287,9.74716 301.5,9.5C 302.713,9.74716 303.38,10.4138 303.5,11.5 Z"/></g>
<g><path style="opacity:1" fill="#d9a7a5" d="M 299.5,11.5 C 300.833,11.5 302.167,11.5 303.5,11.5C 303.5,15.5 303.5,19.5 303.5,23.5C 304.167,24.8333 304.833,26.1667 305.5,27.5C 305.5,28.1667 305.5,28.8333 305.5,29.5C 303.547,35.0738 302.88,41.0738 303.5,47.5C 302.167,47.5 300.833,47.5 299.5,47.5C 299.5,35.5 299.5,23.5 299.5,11.5 Z"/></g>
<g><path style="opacity:1" fill="#f0dddc" d="M 303.5,11.5 C 305.402,14.3373 306.069,17.6707 305.5,21.5C 306.833,21.5 308.167,21.5 309.5,21.5C 308.082,23.3079 306.082,23.9746 303.5,23.5C 303.5,19.5 303.5,15.5 303.5,11.5 Z"/></g>
<g><path style="opacity:1" fill="#a3b99a" d="M 421.5,11.5 C 422.833,11.5 424.167,11.5 425.5,11.5C 425.5,12.8333 425.5,14.1667 425.5,15.5C 424.167,15.5 422.833,15.5 421.5,15.5C 421.5,14.1667 421.5,12.8333 421.5,11.5 Z"/></g>
<g><path style="opacity:1" fill="#c3d1bd" d="M 421.5,15.5 C 422.833,15.5 424.167,15.5 425.5,15.5C 425.5,14.1667 425.5,12.8333 425.5,11.5C 424.167,11.5 422.833,11.5 421.5,11.5C 422.918,9.69206 424.918,9.02539 427.5,9.5C 427.5,12.1667 427.5,14.8333 427.5,17.5C 424.918,17.9746 422.918,17.3079 421.5,15.5 Z"/></g>
<g><path style="opacity:1" fill="#f0dbda" d="M 299.5,11.5 C 299.5,23.5 299.5,35.5 299.5,47.5C 298.171,41.8725 297.504,35.8725 297.5,29.5C 297.504,23.1275 298.171,17.1275 299.5,11.5 Z"/></g>
<g><path style="opacity:1" fill="#f5e9e9" d="M 271.5,21.5 C 266.694,21.3961 262.028,22.0628 257.5,23.5C 257.721,22.2652 258.388,21.2652 259.5,20.5C 261.5,20.1667 263.5,19.8333 265.5,19.5C 267.952,19.5391 269.952,20.2057 271.5,21.5 Z"/></g>
<g><path style="opacity:1" fill="#f3e3e2" d="M 337.5,23.5 C 334.833,23.5 332.167,23.5 329.5,23.5C 330.334,22.2521 331.667,21.5854 333.5,21.5C 335.333,21.5854 336.666,22.2521 337.5,23.5 Z"/></g>
<g><path style="opacity:1" fill="#cbdadf" d="M 515.5,23.5 C 512.102,23.1796 508.768,23.513 505.5,24.5C 507.975,24.9642 509.975,25.9642 511.5,27.5C 508.833,27.5 506.167,27.5 503.5,27.5C 502.833,26.1667 502.167,24.8333 501.5,23.5C 503.984,22.4132 506.651,21.7466 509.5,21.5C 511.952,21.5391 513.952,22.2057 515.5,23.5 Z"/></g>
<g><path style="opacity:1" fill="#e2bab9" d="M 271.5,21.5 C 273.5,22.1667 274.833,23.5 275.5,25.5C 273.517,25.1568 272.183,25.8235 271.5,27.5C 270.833,27.5 270.167,27.5 269.5,27.5C 268.666,26.2521 267.333,25.5854 265.5,25.5C 263.667,25.5854 262.334,26.2521 261.5,27.5C 260.833,27.5 260.167,27.5 259.5,27.5C 257.824,26.8166 257.157,25.4832 257.5,23.5C 262.028,22.0628 266.694,21.3961 271.5,21.5 Z"/></g>
<g><path style="opacity:1" fill="#e2bcba" d="M 309.5,21.5 C 312.698,20.9644 315.365,21.631 317.5,23.5C 315.517,23.1568 314.183,23.8235 313.5,25.5C 310.918,25.0254 308.918,25.6921 307.5,27.5C 306.833,27.5 306.167,27.5 305.5,27.5C 304.833,26.1667 304.167,24.8333 303.5,23.5C 306.082,23.9746 308.082,23.3079 309.5,21.5 Z"/></g>
<g><path style="opacity:1" fill="#e2bcbb" d="M 329.5,23.5 C 332.167,23.5 334.833,23.5 337.5,23.5C 342.619,22.8969 347.285,23.5636 351.5,25.5C 343.368,25.114 335.368,25.7806 327.5,27.5C 328.167,26.1667 328.833,24.8333 329.5,23.5 Z"/></g>
<g><path style="opacity:1" fill="#f2e3c7" d="M 377.5,23.5 C 374.102,23.1796 370.768,23.513 367.5,24.5C 370.616,24.9201 373.283,25.9201 375.5,27.5C 372.167,27.5 368.833,27.5 365.5,27.5C 364.833,26.1667 364.167,24.8333 363.5,23.5C 365.984,22.4132 368.651,21.7466 371.5,21.5C 373.952,21.5391 375.952,22.2057 377.5,23.5 Z"/></g>
<g><path style="opacity:1" fill="#ead1a2" d="M 393.5,23.5 C 393.614,25.7179 394.28,27.7179 395.5,29.5C 395.5,33.5 395.5,37.5 395.5,41.5C 393.724,46.609 393.057,51.9423 393.5,57.5C 392.833,57.5 392.167,57.5 391.5,57.5C 390.856,45.784 391.522,34.4507 393.5,23.5 Z"/></g>
<g><path style="opacity:1" fill="#eedbb7" d="M 399.5,21.5 C 403.329,20.931 406.663,21.5977 409.5,23.5C 407.517,23.1568 406.183,23.8235 405.5,25.5C 402.918,25.0254 400.918,25.6921 399.5,27.5C 398.167,28.1667 396.833,28.8333 395.5,29.5C 394.28,27.7179 393.614,25.7179 393.5,23.5C 396.082,23.9746 398.082,23.3079 399.5,21.5 Z"/></g>
<g><path style="opacity:1" fill="#bacfd6" d="M 519.5,27.5 C 517.5,26.8333 516.167,25.5 515.5,23.5C 519.183,23.0534 522.85,22.3867 526.5,21.5C 529.921,21.3786 532.588,22.7119 534.5,25.5C 535.497,32.8032 535.831,40.1365 535.5,47.5C 533.5,47.5 531.5,47.5 529.5,47.5C 529.5,40.1667 529.5,32.8333 529.5,25.5C 525.917,25.2319 522.584,25.8986 519.5,27.5 Z"/></g>
<g><path style="opacity:1" fill="#f1dfde" d="M 269.5,27.5 C 266.833,27.5 264.167,27.5 261.5,27.5C 262.334,26.2521 263.667,25.5854 265.5,25.5C 267.333,25.5854 268.666,26.2521 269.5,27.5 Z"/></g>
<g><path style="opacity:1" fill="#eed9d8" d="M 313.5,25.5 C 314.833,25.5 315.5,26.1667 315.5,27.5C 312.833,27.5 310.167,27.5 307.5,27.5C 308.918,25.6921 310.918,25.0254 313.5,25.5 Z"/></g>
<g><path style="opacity:1" fill="#d9a6a4" d="M 351.5,25.5 C 352.833,25.5 353.5,26.1667 353.5,27.5C 353.5,30.1667 353.5,32.8333 353.5,35.5C 353.5,36.1667 353.5,36.8333 353.5,37.5C 349.5,40.1667 346.167,43.5 343.5,47.5C 340.833,46.8333 338.167,46.1667 335.5,45.5C 333.5,42.1667 330.833,39.5 327.5,37.5C 327.5,36.8333 327.5,36.1667 327.5,35.5C 327.5,32.8333 327.5,30.1667 327.5,27.5C 335.368,25.7806 343.368,25.114 351.5,25.5 Z"/></g>
<g><path style="opacity:1" fill="#f2e4c8" d="M 363.5,23.5 C 362.167,23.5 360.833,23.5 359.5,23.5C 359.5,34.8333 359.5,46.1667 359.5,57.5C 357.521,45.8799 356.854,33.8799 357.5,21.5C 360.082,21.0254 362.082,21.6921 363.5,23.5 Z"/></g>
<g><path style="opacity:1" fill="#ead1a2" d="M 363.5,23.5 C 364.167,24.8333 364.833,26.1667 365.5,27.5C 363.817,31.2584 363.151,35.2584 363.5,39.5C 363.5,41.5 363.5,43.5 363.5,45.5C 363.5,49.5 363.5,53.5 363.5,57.5C 362.167,57.5 360.833,57.5 359.5,57.5C 359.5,46.1667 359.5,34.8333 359.5,23.5C 360.833,23.5 362.167,23.5 363.5,23.5 Z"/></g>
<g><path style="opacity:1" fill="#f3e4ca" d="M 399.5,21.5 C 398.082,23.3079 396.082,23.9746 393.5,23.5C 391.522,34.4507 390.856,45.784 391.5,57.5C 389.521,45.8799 388.854,33.8799 389.5,21.5C 392.833,21.5 396.167,21.5 399.5,21.5 Z"/></g>
<g><path style="opacity:1" fill="#f6ecd9" d="M 405.5,25.5 C 406.833,25.5 407.5,26.1667 407.5,27.5C 404.833,27.5 402.167,27.5 399.5,27.5C 400.918,25.6921 402.918,25.0254 405.5,25.5 Z"/></g>
<g><path style="opacity:1" fill="#adc1a5" d="M 427.5,47.5 C 425.5,47.5 423.5,47.5 421.5,47.5C 421.5,38.8333 421.5,30.1667 421.5,21.5C 423.5,21.5 425.5,21.5 427.5,21.5C 427.5,30.1667 427.5,38.8333 427.5,47.5 Z"/></g>
<g><path style="opacity:1" fill="#9bb491" d="M 423.5,23.5 C 424.822,26.7681 425.489,30.4348 425.5,34.5C 425.167,38.1667 424.833,41.8333 424.5,45.5C 423.503,38.1968 423.169,30.8635 423.5,23.5 Z"/></g>
<g><path style="opacity:1" fill="#d8e4e8" d="M 497.5,21.5 C 497.5,30.1667 497.5,38.8333 497.5,47.5C 496.175,43.5549 495.508,39.2216 495.5,34.5C 495.508,29.7784 496.175,25.4451 497.5,21.5 Z"/></g>
<g><path style="opacity:1" fill="#acc5cd" d="M 497.5,21.5 C 499.483,21.1568 500.817,21.8235 501.5,23.5C 502.167,24.8333 502.833,26.1667 503.5,27.5C 503.5,28.1667 503.5,28.8333 503.5,29.5C 501.547,35.0738 500.88,41.0738 501.5,47.5C 500.167,47.5 498.833,47.5 497.5,47.5C 497.5,38.8333 497.5,30.1667 497.5,21.5 Z"/></g>
<g><path style="opacity:1" fill="#f0dddc" d="M 257.5,23.5 C 257.157,25.4832 257.824,26.8166 259.5,27.5C 258.817,29.1765 257.483,29.8432 255.5,29.5C 255.025,26.9179 255.692,24.9179 257.5,23.5 Z"/></g>
<g><path style="opacity:1" fill="#d9a6a3" d="M 275.5,25.5 C 275.5,32.8333 275.5,40.1667 275.5,47.5C 274.833,47.5 274.167,47.5 273.5,47.5C 273.386,45.2821 272.72,43.2821 271.5,41.5C 272.693,41.0296 273.36,40.0296 273.5,38.5C 273.014,36.6958 272.347,35.0291 271.5,33.5C 272.693,33.0296 273.36,32.0296 273.5,30.5C 273.36,28.9704 272.693,27.9704 271.5,27.5C 272.183,25.8235 273.517,25.1568 275.5,25.5 Z"/></g>
<g><path style="opacity:1" fill="#fdfbf8" d="M 365.5,27.5 C 368.833,27.5 372.167,27.5 375.5,27.5C 376.805,29.3972 377.471,31.7305 377.5,34.5C 377.167,36.8333 376.833,39.1667 376.5,41.5C 373.101,43.3122 369.434,43.9789 365.5,43.5C 365.843,41.5168 365.176,40.1834 363.5,39.5C 363.151,35.2584 363.817,31.2584 365.5,27.5 Z"/></g>
<g><path style="opacity:1" fill="#fdfbf7" d="M 399.5,27.5 C 402.167,27.5 404.833,27.5 407.5,27.5C 409.176,28.1834 409.843,29.5168 409.5,31.5C 409.5,34.1667 409.5,36.8333 409.5,39.5C 409.5,40.1667 409.5,40.8333 409.5,41.5C 404.833,44.1667 400.167,44.1667 395.5,41.5C 395.5,37.5 395.5,33.5 395.5,29.5C 396.833,28.8333 398.167,28.1667 399.5,27.5 Z"/></g>
<g><path style="opacity:1" fill="#b2c5ab" d="M 477.5,25.5 C 472.555,24.6765 469.888,26.6765 469.5,31.5C 468.833,31.5 468.167,31.5 467.5,31.5C 467.181,28.194 465.847,25.5274 463.5,23.5C 463.62,22.4138 464.287,21.7472 465.5,21.5C 466.833,22.1667 468.167,22.8333 469.5,23.5C 472.642,21.8813 475.975,21.2146 479.5,21.5C 479.843,23.4832 479.176,24.8166 477.5,25.5 Z"/></g>
<g><path style="opacity:1" fill="#dde4d9" d="M 477.5,25.5 C 474.91,27.4767 472.243,29.4767 469.5,31.5C 469.888,26.6765 472.555,24.6765 477.5,25.5 Z"/></g>
<g><path style="opacity:1" fill="#aac3cc" d="M 515.5,23.5 C 516.167,25.5 517.5,26.8333 519.5,27.5C 519.5,28.1667 519.5,28.8333 519.5,29.5C 517.866,34.4373 516.866,39.7706 516.5,45.5C 516.134,39.7706 515.134,34.4373 513.5,29.5C 513.5,28.1667 512.833,27.5 511.5,27.5C 509.975,25.9642 507.975,24.9642 505.5,24.5C 508.768,23.513 512.102,23.1796 515.5,23.5 Z"/></g>
<g><path style="opacity:1" fill="#dbaba9" d="M 317.5,23.5 C 319.5,24.1667 320.833,25.5 321.5,27.5C 321.5,34.1667 321.5,40.8333 321.5,47.5C 320.167,47.5 318.833,47.5 317.5,47.5C 318.126,40.4163 317.459,33.7496 315.5,27.5C 315.5,26.1667 314.833,25.5 313.5,25.5C 314.183,23.8235 315.517,23.1568 317.5,23.5 Z"/></g>
<g><path style="opacity:1" fill="#f0dedd" d="M 321.5,27.5 C 322.82,30.428 323.486,33.7614 323.5,37.5C 323.486,41.2386 322.82,44.572 321.5,47.5C 321.5,40.8333 321.5,34.1667 321.5,27.5 Z"/></g>
<g><path style="opacity:1" fill="#ebd1d0" d="M 327.5,27.5 C 327.5,30.1667 327.5,32.8333 327.5,35.5C 326.252,34.6661 325.585,33.3328 325.5,31.5C 325.585,29.6672 326.252,28.3339 327.5,27.5 Z"/></g>
<g><path style="opacity:1" fill="#ecd4d3" d="M 353.5,27.5 C 354.748,28.3339 355.415,29.6672 355.5,31.5C 355.415,33.3328 354.748,34.6661 353.5,35.5C 353.5,32.8333 353.5,30.1667 353.5,27.5 Z"/></g>
<g><path style="opacity:1" fill="#ead1a4" d="M 409.5,23.5 C 411.5,24.1667 412.833,25.5 413.5,27.5C 413.5,32.8333 413.5,38.1667 413.5,43.5C 411.517,43.8432 410.183,43.1765 409.5,41.5C 409.5,40.8333 409.5,40.1667 409.5,39.5C 410.748,38.6661 411.415,37.3328 411.5,35.5C 411.415,33.6672 410.748,32.3339 409.5,31.5C 409.843,29.5168 409.176,28.1834 407.5,27.5C 407.5,26.1667 406.833,25.5 405.5,25.5C 406.183,23.8235 407.517,23.1568 409.5,23.5 Z"/></g>
<g><path style="opacity:1" fill="#edd5d4" d="M 271.5,27.5 C 272.693,27.9704 273.36,28.9704 273.5,30.5C 273.36,32.0296 272.693,33.0296 271.5,33.5C 268.833,33.5 266.167,33.5 263.5,33.5C 265.635,31.631 268.302,30.9644 271.5,31.5C 271.5,30.1667 271.5,28.8333 271.5,27.5 Z"/></g>
<g><path style="opacity:1" fill="#e3c0be" d="M 275.5,25.5 C 276.822,28.7681 277.489,32.4348 277.5,36.5C 277.489,40.5652 276.822,44.2319 275.5,47.5C 275.5,40.1667 275.5,32.8333 275.5,25.5 Z"/></g>
<g><path style="opacity:1" fill="#efdcdb" d="M 315.5,27.5 C 317.459,33.7496 318.126,40.4163 317.5,47.5C 315.541,41.2504 314.874,34.5837 315.5,27.5 Z"/></g>
<g><path style="opacity:1" fill="#c1d4da" d="M 513.5,29.5 C 515.134,34.4373 516.134,39.7706 516.5,45.5C 516.866,39.7706 517.866,34.4373 519.5,29.5C 519.5,35.5 519.5,41.5 519.5,47.5C 517.5,47.5 515.5,47.5 513.5,47.5C 513.5,41.5 513.5,35.5 513.5,29.5 Z"/></g>
<g><path style="opacity:1" fill="#e5c3c2" d="M 263.5,33.5 C 266.167,33.5 268.833,33.5 271.5,33.5C 272.347,35.0291 273.014,36.6958 273.5,38.5C 273.36,40.0296 272.693,41.0296 271.5,41.5C 271.5,40.1667 271.5,38.8333 271.5,37.5C 268.167,37.5 264.833,37.5 261.5,37.5C 260.817,35.8235 259.483,35.1568 257.5,35.5C 258.918,33.6921 260.918,33.0254 263.5,33.5 Z"/></g>
<g><path style="opacity:1" fill="#f0dcdb" d="M 305.5,29.5 C 306.12,35.9262 305.453,41.9262 303.5,47.5C 302.88,41.0738 303.547,35.0738 305.5,29.5 Z"/></g>
<g><path style="opacity:1" fill="#f2e2c5" d="M 409.5,31.5 C 410.748,32.3339 411.415,33.6672 411.5,35.5C 411.415,37.3328 410.748,38.6661 409.5,39.5C 409.5,36.8333 409.5,34.1667 409.5,31.5 Z"/></g>
<g><path style="opacity:1" fill="#f0ddbc" d="M 413.5,27.5 C 414.812,29.7432 415.478,32.4098 415.5,35.5C 415.478,38.5902 414.812,41.2568 413.5,43.5C 413.5,38.1667 413.5,32.8333 413.5,27.5 Z"/></g>
<g><path style="opacity:1" fill="#afc2a7" d="M 455.5,27.5 C 455.5,30.1667 455.5,32.8333 455.5,35.5C 449.729,34.8872 444.396,35.5539 439.5,37.5C 439.328,39.4918 439.995,41.1585 441.5,42.5C 444.768,43.487 448.102,43.8204 451.5,43.5C 453.483,43.1568 454.817,43.8235 455.5,45.5C 454.817,47.1765 453.483,47.8432 451.5,47.5C 447.5,47.5 443.5,47.5 439.5,47.5C 433.893,42.0928 432.227,35.4262 434.5,27.5C 438.921,21.9207 444.587,20.2541 451.5,22.5C 453.261,23.9166 454.594,25.5833 455.5,27.5 Z"/></g>
<g><path style="opacity:1" fill="#d9e2d5" d="M 439.5,31.5 C 443.5,31.5 447.5,31.5 451.5,31.5C 449.952,32.7943 447.952,33.4609 445.5,33.5C 443.048,33.4609 441.048,32.7943 439.5,31.5 Z"/></g>
<g><path style="opacity:1" fill="#f3f6f2" d="M 451.5,31.5 C 447.5,31.5 443.5,31.5 439.5,31.5C 439.468,27.5319 441.468,25.5319 445.5,25.5C 449.532,25.5319 451.532,27.5319 451.5,31.5 Z"/></g>
<g><path style="opacity:1" fill="#c9d6c4" d="M 455.5,27.5 C 456.748,28.3339 457.415,29.6672 457.5,31.5C 457.415,33.3328 456.748,34.6661 455.5,35.5C 455.5,32.8333 455.5,30.1667 455.5,27.5 Z"/></g>
<g><path style="opacity:1" fill="#9eb695" d="M 463.5,23.5 C 465.847,25.5274 467.181,28.194 467.5,31.5C 467.5,36.8333 467.5,42.1667 467.5,47.5C 466.167,47.5 464.833,47.5 463.5,47.5C 463.5,39.5 463.5,31.5 463.5,23.5 Z"/></g>
<g><path style="opacity:1" fill="#c9d6c5" d="M 467.5,31.5 C 468.167,31.5 468.833,31.5 469.5,31.5C 470.113,37.2709 469.446,42.6042 467.5,47.5C 467.5,42.1667 467.5,36.8333 467.5,31.5 Z"/></g>
<g><path style="opacity:1" fill="#e0e9ed" d="M 503.5,29.5 C 504.12,35.9262 503.453,41.9262 501.5,47.5C 500.88,41.0738 501.547,35.0738 503.5,29.5 Z"/></g>
<g><path style="opacity:1" fill="#d3decf" d="M 455.5,35.5 C 450.604,37.4461 445.271,38.1128 439.5,37.5C 444.396,35.5539 449.729,34.8872 455.5,35.5 Z"/></g>
<g><path style="opacity:1" fill="#dae6e9" d="M 565.5,35.5 C 559.926,37.4533 553.926,38.12 547.5,37.5C 553.074,35.5467 559.074,34.88 565.5,35.5 Z"/></g>
<g><path style="opacity:1" fill="#fbf7f7" d="M 261.5,37.5 C 264.833,37.5 268.167,37.5 271.5,37.5C 271.5,38.8333 271.5,40.1667 271.5,41.5C 269.084,42.9682 266.417,43.6349 263.5,43.5C 261.692,42.0821 261.025,40.0821 261.5,37.5 Z"/></g>
<g><path style="opacity:1" fill="#f0dfc0" d="M 77.5,35.5 C 78.0356,38.6981 77.369,41.3647 75.5,43.5C 74.9644,40.3019 75.631,37.6353 77.5,35.5 Z"/></g>
<g><path style="opacity:1" fill="#f2e0df" d="M 327.5,37.5 C 330.833,39.5 333.5,42.1667 335.5,45.5C 330.833,44.8333 328.167,42.1667 327.5,37.5 Z"/></g>
<g><path style="opacity:1" fill="#f3e5e5" d="M 353.5,37.5 C 352.782,41.242 350.782,44.242 347.5,46.5C 346.311,47.4287 344.978,47.762 343.5,47.5C 346.167,43.5 349.5,40.1667 353.5,37.5 Z"/></g>
<g><path style="opacity:1" fill="#edd7b0" d="M 377.5,23.5 C 382.252,25.5241 384.252,29.1907 383.5,34.5C 383.416,38.4349 382.416,42.1016 380.5,45.5C 379.735,46.6119 378.735,47.2786 377.5,47.5C 374.167,47.5 370.833,47.5 367.5,47.5C 366.167,46.8333 364.833,46.1667 363.5,45.5C 363.5,43.5 363.5,41.5 363.5,39.5C 365.176,40.1834 365.843,41.5168 365.5,43.5C 369.434,43.9789 373.101,43.3122 376.5,41.5C 376.833,39.1667 377.167,36.8333 377.5,34.5C 377.471,31.7305 376.805,29.3972 375.5,27.5C 373.283,25.9201 370.616,24.9201 367.5,24.5C 370.768,23.513 374.102,23.1796 377.5,23.5 Z"/></g>
<g><path style="opacity:1" fill="#efdbb7" d="M 395.5,41.5 C 400.167,44.1667 404.833,44.1667 409.5,41.5C 410.183,43.1765 411.517,43.8432 413.5,43.5C 412.554,46.3126 410.554,47.646 407.5,47.5C 404.833,47.5 402.167,47.5 399.5,47.5C 398.167,47.5 396.833,47.5 395.5,47.5C 396.069,51.3293 395.402,54.6627 393.5,57.5C 393.057,51.9423 393.724,46.609 395.5,41.5 Z"/></g>
<g><path style="opacity:1" fill="#b5cbd3" d="M 565.5,35.5 C 559.074,34.88 553.074,35.5467 547.5,37.5C 548.364,39.919 549.697,41.919 551.5,43.5C 553.025,45.0358 555.025,46.0358 557.5,46.5C 554.232,47.487 550.898,47.8204 547.5,47.5C 542.214,41.8207 540.548,35.1541 542.5,27.5C 549.833,19.5 557.167,19.5 564.5,27.5C 565.48,30.0865 565.813,32.7531 565.5,35.5 Z"/></g>
<g><path style="opacity:1" fill="#dfe9ec" d="M 549.5,27.5 C 549.5,28.8333 549.5,30.1667 549.5,31.5C 552.833,31.5 556.167,31.5 559.5,31.5C 555.971,33.4228 551.971,34.0894 547.5,33.5C 547.025,30.9179 547.692,28.9179 549.5,27.5 Z"/></g>
<g><path style="opacity:1" fill="#f5f8f9" d="M 559.5,31.5 C 556.167,31.5 552.833,31.5 549.5,31.5C 549.5,30.1667 549.5,28.8333 549.5,27.5C 550.334,26.2521 551.667,25.5854 553.5,25.5C 557.532,25.5319 559.532,27.5319 559.5,31.5 Z"/></g>
<g><path style="opacity:1" fill="#dfb4b2" d="M 257.5,35.5 C 259.483,35.1568 260.817,35.8235 261.5,37.5C 261.025,40.0821 261.692,42.0821 263.5,43.5C 264.833,44.8333 266.167,46.1667 267.5,47.5C 264.833,47.5 262.167,47.5 259.5,47.5C 256.606,46.2316 255.273,43.8983 255.5,40.5C 255.556,38.3603 256.223,36.6936 257.5,35.5 Z"/></g>
<g><path style="opacity:1" fill="#e6c5c4" d="M 271.5,41.5 C 272.72,43.2821 273.386,45.2821 273.5,47.5C 271.5,47.5 269.5,47.5 267.5,47.5C 266.167,46.1667 264.833,44.8333 263.5,43.5C 266.417,43.6349 269.084,42.9682 271.5,41.5 Z"/></g>
<g><path style="opacity:1" fill="#d2ddce" d="M 455.5,45.5 C 454.817,43.8235 453.483,43.1568 451.5,43.5C 452.918,41.6921 454.918,41.0254 457.5,41.5C 457.843,43.4832 457.176,44.8166 455.5,45.5 Z"/></g>
<g><path style="opacity:1" fill="#c8d8de" d="M 547.5,47.5 C 550.898,47.8204 554.232,47.487 557.5,46.5C 555.025,46.0358 553.025,45.0358 551.5,43.5C 556.222,43.1518 560.889,42.4851 565.5,41.5C 565.351,45.3218 563.351,47.6551 559.5,48.5C 557.5,48.8333 555.5,49.1667 553.5,49.5C 551.048,49.4609 549.048,48.7943 547.5,47.5 Z"/></g>
<g><path style="opacity:1" fill="#ecd5d4" d="M 259.5,47.5 C 262.167,47.5 264.833,47.5 267.5,47.5C 266.666,48.7479 265.333,49.4146 263.5,49.5C 261.667,49.4146 260.334,48.7479 259.5,47.5 Z"/></g>
<g><path style="opacity:1" fill="#eed9d8" d="M 299.5,47.5 C 300.833,47.5 302.167,47.5 303.5,47.5C 303.38,48.5862 302.713,49.2528 301.5,49.5C 300.287,49.2528 299.62,48.5862 299.5,47.5 Z"/></g>
<g><path style="opacity:1" fill="#efdada" d="M 317.5,47.5 C 318.833,47.5 320.167,47.5 321.5,47.5C 321.38,48.5862 320.713,49.2528 319.5,49.5C 318.287,49.2528 317.62,48.5862 317.5,47.5 Z"/></g>
<g><path style="opacity:1" fill="#ebd1d0" d="M 335.5,45.5 C 338.167,46.1667 340.833,46.8333 343.5,47.5C 343.03,48.6935 342.03,49.3601 340.5,49.5C 337.898,49.2225 336.231,47.8892 335.5,45.5 Z"/></g>
<g><path style="opacity:1" fill="#f6ead5" d="M 367.5,47.5 C 370.833,47.5 374.167,47.5 377.5,47.5C 376.306,48.7773 374.64,49.4439 372.5,49.5C 370.36,49.4439 368.694,48.7773 367.5,47.5 Z"/></g>
<g><path style="opacity:1" fill="#f5e9d1" d="M 399.5,47.5 C 402.167,47.5 404.833,47.5 407.5,47.5C 406.666,48.7479 405.333,49.4146 403.5,49.5C 401.667,49.4146 400.334,48.7479 399.5,47.5 Z"/></g>
<g><path style="opacity:1" fill="#d9e2d5" d="M 421.5,47.5 C 423.5,47.5 425.5,47.5 427.5,47.5C 427.03,48.6935 426.03,49.3601 424.5,49.5C 422.97,49.3601 421.97,48.6935 421.5,47.5 Z"/></g>
<g><path style="opacity:1" fill="#d2dcce" d="M 439.5,47.5 C 443.5,47.5 447.5,47.5 451.5,47.5C 449.952,48.7943 447.952,49.4609 445.5,49.5C 443.048,49.4609 441.048,48.7943 439.5,47.5 Z"/></g>
<g><path style="opacity:1" fill="#d4ded0" d="M 463.5,47.5 C 464.833,47.5 466.167,47.5 467.5,47.5C 467.38,48.5862 466.713,49.2528 465.5,49.5C 464.287,49.2528 463.62,48.5862 463.5,47.5 Z"/></g>
<g><path style="opacity:1" fill="#f1e0c1" d="M 145.5,35.5 C 146.816,38.0866 147.483,41.0866 147.5,44.5C 147.483,47.9134 146.816,50.9134 145.5,53.5C 145.5,47.5 145.5,41.5 145.5,35.5 Z"/></g>
<g><path style="opacity:1" fill="#f5e8d2" d="M 103.5,79.5 C 108.833,79.5 114.167,79.5 119.5,79.5C 117.257,80.8117 114.59,81.4783 111.5,81.5C 108.41,81.4783 105.743,80.8117 103.5,79.5 Z"/></g>
<g><path style="opacity:1" fill="#fbf4f4" d="M 421.5,79.5 C 422.832,89.4777 423.499,99.811 423.5,110.5C 423.499,121.189 422.832,131.522 421.5,141.5C 421.5,120.833 421.5,100.167 421.5,79.5 Z"/></g>
<g><path style="opacity:1" fill="#cdd9c9" d="M 31.5,81.5 C 30.8166,83.1765 29.4832,83.8432 27.5,83.5C 28.1834,81.8235 29.5168,81.1568 31.5,81.5 Z"/></g>
<g><path style="opacity:1" fill="#99b290" d="M 31.5,81.5 C 47.6941,79.2272 60.6941,84.5605 70.5,97.5C 76.1708,108.538 76.8375,119.871 72.5,131.5C 71.2695,134.732 69.2695,137.399 66.5,139.5C 65.5713,140.689 65.238,142.022 65.5,143.5C 60.9396,145.78 56.2729,148.114 51.5,150.5C 44.1968,151.497 36.8635,151.831 29.5,151.5C 28.8166,149.824 27.4832,149.157 25.5,149.5C 15.1985,144.532 8.53183,136.532 5.5,125.5C 5.5,120.167 5.5,114.833 5.5,109.5C 7.80061,96.5357 15.1339,87.869 27.5,83.5C 29.4832,83.8432 30.8166,83.1765 31.5,81.5 Z"/></g>
<g><path style="opacity:1" fill="#e8c9c8" d="M 175.5,81.5 C 174.817,83.1765 173.483,83.8432 171.5,83.5C 172.183,81.8235 173.517,81.1568 175.5,81.5 Z"/></g>
<g><path style="opacity:1" fill="#d9a4a2" d="M 175.5,81.5 C 180.833,81.5 186.167,81.5 191.5,81.5C 192.183,83.1765 193.517,83.8432 195.5,83.5C 207.915,87.9114 215.248,96.5781 217.5,109.5C 217.5,114.833 217.5,120.167 217.5,125.5C 213.941,138.06 205.941,146.393 193.5,150.5C 186.866,151.497 180.2,151.83 173.5,151.5C 172.817,149.824 171.483,149.157 169.5,149.5C 165.466,147.441 161.466,145.441 157.5,143.5C 153.499,138.165 150.499,132.165 148.5,125.5C 145.232,109.301 150.232,96.301 163.5,86.5C 165.99,84.9172 168.657,83.9172 171.5,83.5C 173.483,83.8432 174.817,83.1765 175.5,81.5 Z"/></g>
<g><path style="opacity:1" fill="#efdada" d="M 191.5,81.5 C 193.483,81.1568 194.817,81.8235 195.5,83.5C 193.517,83.8432 192.183,83.1765 191.5,81.5 Z"/></g>
<g><path style="opacity:1" fill="#d8a4a2" d="M 395.5,79.5 C 395.5,100.167 395.5,120.833 395.5,141.5C 392.167,141.5 388.833,141.5 385.5,141.5C 385.5,121.5 385.5,101.5 385.5,81.5C 388.584,79.8986 391.917,79.2319 395.5,79.5 Z"/></g>
<g><path style="opacity:1" fill="#e9cfa0" d="M 445.5,79.5 C 445.5,87.5 445.5,95.5 445.5,103.5C 447.483,103.843 448.817,103.176 449.5,101.5C 468.41,96.3969 477.077,103.73 475.5,123.5C 473.824,124.183 473.157,125.517 473.5,127.5C 471.14,134.189 466.474,138.523 459.5,140.5C 451.111,142.118 443.111,141.118 435.5,137.5C 435.5,118.833 435.5,100.167 435.5,81.5C 438.734,80.424 442.068,79.7573 445.5,79.5 Z"/></g>
<g><path style="opacity:1" fill="#f0ddbc" d="M 445.5,79.5 C 446.833,86.8333 448.167,94.1667 449.5,101.5C 448.817,103.176 447.483,103.843 445.5,103.5C 445.5,95.5 445.5,87.5 445.5,79.5 Z"/></g>
<g><path style="opacity:1" fill="#a0b796" d="M 547.5,83.5 C 547.5,84.8333 547.5,86.1667 547.5,87.5C 545.871,91.0452 543.205,92.0452 539.5,90.5C 538.388,89.7348 537.721,88.7348 537.5,87.5C 537.5,86.1667 537.5,84.8333 537.5,83.5C 539.129,79.9548 541.795,78.9548 545.5,80.5C 546.612,81.2652 547.279,82.2652 547.5,83.5 Z"/></g>
<g><path style="opacity:1" fill="#adc5cd" d="M 747.5,79.5 C 754.643,79.3153 756.976,82.6486 754.5,89.5C 753.377,90.5437 752.044,91.2104 750.5,91.5C 748.223,90.5217 745.89,89.8551 743.5,89.5C 743.201,87.396 743.534,85.396 744.5,83.5C 745.934,82.4116 746.934,81.0783 747.5,79.5 Z"/></g>
<g><path style="opacity:1" fill="#a5c0c9" d="M 867.5,79.5 C 867.5,100.167 867.5,120.833 867.5,141.5C 864.167,141.5 860.833,141.5 857.5,141.5C 857.5,121.5 857.5,101.5 857.5,81.5C 860.584,79.8986 863.917,79.2319 867.5,79.5 Z"/></g>
<g><path style="opacity:1" fill="#f7edec" d="M 385.5,81.5 C 385.5,101.5 385.5,121.5 385.5,141.5C 384.168,131.856 383.501,121.856 383.5,111.5C 383.501,101.144 384.168,91.1436 385.5,81.5 Z"/></g>
<g><path style="opacity:1" fill="#edd6d6" d="M 395.5,79.5 C 396.832,89.4777 397.499,99.811 397.5,110.5C 397.499,121.189 396.832,131.522 395.5,141.5C 395.5,120.833 395.5,100.167 395.5,79.5 Z"/></g>
<g><path style="opacity:1" fill="#dfb5b3" d="M 421.5,79.5 C 421.5,100.167 421.5,120.833 421.5,141.5C 417.5,141.5 413.5,141.5 409.5,141.5C 408.845,121.139 409.512,101.139 411.5,81.5C 411.5,100.833 411.5,120.167 411.5,139.5C 414.167,139.5 416.833,139.5 419.5,139.5C 419.5,120.167 419.5,100.833 419.5,81.5C 417.5,81.5 415.5,81.5 413.5,81.5C 415.635,79.631 418.302,78.9644 421.5,79.5 Z"/></g>
<g><path style="opacity:1" fill="#d8a3a1" d="M 411.5,81.5 C 412.167,81.5 412.833,81.5 413.5,81.5C 415.5,81.5 417.5,81.5 419.5,81.5C 419.5,100.833 419.5,120.167 419.5,139.5C 416.833,139.5 414.167,139.5 411.5,139.5C 411.5,120.167 411.5,100.833 411.5,81.5 Z"/></g>
<g><path style="opacity:1" fill="#fbf5ed" d="M 435.5,81.5 C 435.5,100.167 435.5,118.833 435.5,137.5C 434.168,128.525 433.502,119.191 433.5,109.5C 433.502,99.8086 434.168,90.4752 435.5,81.5 Z"/></g>
<g><path style="opacity:1" fill="#e0eaed" d="M 857.5,81.5 C 857.5,101.5 857.5,121.5 857.5,141.5C 856.168,131.856 855.501,121.856 855.5,111.5C 855.501,101.144 856.168,91.1436 857.5,81.5 Z"/></g>
<g><path style="opacity:1" fill="#e1eaed" d="M 867.5,79.5 C 868.832,89.4777 869.499,99.811 869.5,110.5C 869.499,121.189 868.832,131.522 867.5,141.5C 867.5,120.833 867.5,100.167 867.5,79.5 Z"/></g>
<g><path style="opacity:1" fill="#cbd7c6" d="M 537.5,83.5 C 537.5,84.8333 537.5,86.1667 537.5,87.5C 536.414,87.38 535.747,86.7133 535.5,85.5C 535.747,84.2867 536.414,83.62 537.5,83.5 Z"/></g>
<g><path style="opacity:1" fill="#c7d4c2" d="M 547.5,83.5 C 548.586,83.62 549.253,84.2867 549.5,85.5C 549.253,86.7133 548.586,87.38 547.5,87.5C 547.5,86.1667 547.5,84.8333 547.5,83.5 Z"/></g>
<g><path style="opacity:1" fill="#dfe9ec" d="M 711.5,87.5 C 708.167,87.5 704.833,87.5 701.5,87.5C 702.694,86.2227 704.36,85.5561 706.5,85.5C 708.64,85.5561 710.306,86.2227 711.5,87.5 Z"/></g>
<g><path style="opacity:1" fill="#f0dcdb" d="M 325.5,87.5 C 326.586,87.62 327.253,88.2867 327.5,89.5C 327.253,90.7133 326.586,91.38 325.5,91.5C 325.5,90.1667 325.5,88.8333 325.5,87.5 Z"/></g>
<g><path style="opacity:1" fill="#a8c2cb" d="M 701.5,87.5 C 704.833,87.5 708.167,87.5 711.5,87.5C 719.18,89.0049 725.18,93.0049 729.5,99.5C 728.833,101.5 727.5,102.833 725.5,103.5C 721.868,100.87 718.535,97.8702 715.5,94.5C 699.831,91.1616 691.165,97.4949 689.5,113.5C 690.238,130.587 698.905,137.587 715.5,134.5C 718.167,131.833 720.833,129.167 723.5,126.5C 725.396,125.534 727.396,125.201 729.5,125.5C 729.714,130.306 727.714,133.973 723.5,136.5C 719.686,138.744 715.686,140.411 711.5,141.5C 707.5,141.5 703.5,141.5 699.5,141.5C 688.315,138.978 680.981,132.311 677.5,121.5C 677.5,116.833 677.5,112.167 677.5,107.5C 681.22,95.7865 689.22,89.1198 701.5,87.5 Z"/></g>
<g><path style="opacity:1" fill="#daa8a5" d="M 281.5,117.5 C 283.176,116.817 283.843,115.483 283.5,113.5C 284.833,109.5 286.167,105.5 287.5,101.5C 289.176,100.817 289.843,99.4832 289.5,97.5C 289.5,96.1667 289.5,94.8333 289.5,93.5C 291.5,93.5 293.5,93.5 295.5,93.5C 296.034,98.4305 297.367,103.097 299.5,107.5C 299.157,109.483 299.824,110.817 301.5,111.5C 302.09,115.347 303.757,118.68 306.5,121.5C 309.043,115.531 311.376,109.531 313.5,103.5C 315.176,102.817 315.843,101.483 315.5,99.5C 316.285,96.1423 317.285,92.809 318.5,89.5C 320.523,87.8267 322.856,87.1601 325.5,87.5C 325.5,88.8333 325.5,90.1667 325.5,91.5C 322.836,98.8236 320.17,106.157 317.5,113.5C 315.824,114.183 315.157,115.517 315.5,117.5C 312.438,125.352 309.771,133.352 307.5,141.5C 305.5,141.5 303.5,141.5 301.5,141.5C 301.386,139.282 300.72,137.282 299.5,135.5C 299.843,133.517 299.176,132.183 297.5,131.5C 296.559,127.343 295.225,123.343 293.5,119.5C 293.843,117.517 293.176,116.183 291.5,115.5C 291.631,114.624 291.298,113.957 290.5,113.5C 287.677,117.801 286.011,122.467 285.5,127.5C 283.824,128.183 283.157,129.517 283.5,131.5C 282.28,133.282 281.614,135.282 281.5,137.5C 279.824,138.183 279.157,139.517 279.5,141.5C 276.918,141.975 274.918,141.308 273.5,139.5C 273.843,137.517 273.176,136.183 271.5,135.5C 270.167,131.5 268.833,127.5 267.5,123.5C 267.843,121.517 267.176,120.183 265.5,119.5C 265.386,117.282 264.72,115.282 263.5,113.5C 263.843,111.517 263.176,110.183 261.5,109.5C 260.167,105.5 258.833,101.5 257.5,97.5C 257.843,95.5168 257.176,94.1834 255.5,93.5C 254.28,91.7179 253.614,89.7179 253.5,87.5C 257.5,87.5 261.5,87.5 265.5,87.5C 270.058,98.6196 274.058,109.953 277.5,121.5C 278.833,121.5 280.167,121.5 281.5,121.5C 281.5,120.167 281.5,118.833 281.5,117.5 Z"/></g>
<g><path style="opacity:1" fill="#ecd2d1" d="M 255.5,93.5 C 257.176,94.1834 257.843,95.5168 257.5,97.5C 255.824,96.8166 255.157,95.4832 255.5,93.5 Z"/></g>
<g><path style="opacity:1" fill="#e9cccb" d="M 289.5,97.5 C 289.843,99.4832 289.176,100.817 287.5,101.5C 287.157,99.5168 287.824,98.1834 289.5,97.5 Z"/></g>
<g><path style="opacity:1" fill="#d9a7a4" d="M 371.5,117.5 C 362.167,117.5 352.833,117.5 343.5,117.5C 342.964,120.698 343.631,123.365 345.5,125.5C 346.72,127.282 347.386,129.282 347.5,131.5C 350.135,132.142 352.802,132.809 355.5,133.5C 361.345,131.605 366.679,128.938 371.5,125.5C 371.5,126.833 371.5,128.167 371.5,129.5C 370.443,131.941 369.11,134.275 367.5,136.5C 354.978,144.331 343.978,142.664 334.5,131.5C 333.534,129.604 333.201,127.604 333.5,125.5C 333.5,122.167 333.5,118.833 333.5,115.5C 333.201,113.396 333.534,111.396 334.5,109.5C 337.5,106.5 340.5,103.5 343.5,100.5C 351.089,98.8255 358.423,99.4922 365.5,102.5C 369.994,106.49 371.994,111.49 371.5,117.5 Z"/></g>
<g><path style="opacity:1" fill="#99b28f" d="M 547.5,99.5 C 547.5,113.5 547.5,127.5 547.5,141.5C 544.167,141.5 540.833,141.5 537.5,141.5C 537.5,128.167 537.5,114.833 537.5,101.5C 540.584,99.8986 543.917,99.2319 547.5,99.5 Z"/></g>
<g><path style="opacity:1" fill="#e0e7dc" d="M 547.5,99.5 C 548.83,106.133 549.497,113.133 549.5,120.5C 549.497,127.867 548.83,134.867 547.5,141.5C 547.5,127.5 547.5,113.5 547.5,99.5 Z"/></g>
<g><path style="opacity:1" fill="#9bb390" d="M 597.5,105.5 C 597.5,117.5 597.5,129.5 597.5,141.5C 594.167,141.5 590.833,141.5 587.5,141.5C 588.144,129.784 587.478,118.451 585.5,107.5C 585.03,106.307 584.03,105.64 582.5,105.5C 580.97,105.64 579.97,106.307 579.5,107.5C 578.167,108.167 576.833,108.833 575.5,109.5C 573.524,119.781 572.857,130.448 573.5,141.5C 570.167,141.5 566.833,141.5 563.5,141.5C 563.5,128.167 563.5,114.833 563.5,101.5C 566.337,99.5977 569.671,98.931 573.5,99.5C 573.238,100.978 573.571,102.311 574.5,103.5C 576.001,102.248 577.668,101.248 579.5,100.5C 584.167,99.1667 588.833,99.1667 593.5,100.5C 595.261,101.917 596.594,103.583 597.5,105.5 Z"/></g>
<g><path style="opacity:1" fill="#a6c1ca" d="M 755.5,99.5 C 755.5,113.5 755.5,127.5 755.5,141.5C 752.167,141.5 748.833,141.5 745.5,141.5C 745.5,128.167 745.5,114.833 745.5,101.5C 748.337,99.5977 751.671,98.931 755.5,99.5 Z"/></g>
<g><path style="opacity:1" fill="#ecf2f4" d="M 755.5,99.5 C 756.83,106.133 757.497,113.133 757.5,120.5C 757.497,127.867 756.83,134.867 755.5,141.5C 755.5,127.5 755.5,113.5 755.5,99.5 Z"/></g>
<g><path style="opacity:1" fill="#a7c2ca" d="M 783.5,111.5 C 781.526,121.111 780.859,131.111 781.5,141.5C 778.167,141.5 774.833,141.5 771.5,141.5C 771.5,128.167 771.5,114.833 771.5,101.5C 772.694,100.223 774.36,99.5561 776.5,99.5C 778.952,99.7895 781.285,100.456 783.5,101.5C 788.668,99.7145 794.002,99.0478 799.5,99.5C 799.5,102.167 799.5,104.833 799.5,107.5C 794.786,107.173 790.12,107.507 785.5,108.5C 784.388,109.265 783.721,110.265 783.5,111.5 Z"/></g>
<g><path style="opacity:1" fill="#a9c3cb" d="M 817.5,99.5 C 823.537,99.1707 829.537,99.5041 835.5,100.5C 840.563,101.724 842.23,104.724 840.5,109.5C 838.477,111.173 836.144,111.84 833.5,111.5C 830.712,102.687 825.712,101.354 818.5,107.5C 816.826,115.089 817.492,122.423 820.5,129.5C 824.117,133.292 828.45,134.292 833.5,132.5C 835.987,130.191 837.987,127.524 839.5,124.5C 841.396,123.534 843.396,123.201 845.5,123.5C 843.915,135.083 837.248,141.083 825.5,141.5C 812.453,140.783 805.787,133.783 805.5,120.5C 805.584,116.565 806.584,112.898 808.5,109.5C 811.915,106.425 814.915,103.092 817.5,99.5 Z"/></g>
<g><path style="opacity:1" fill="#a9c3cb" d="M 917.5,109.5 C 917.5,112.167 917.5,114.833 917.5,117.5C 908.833,117.5 900.167,117.5 891.5,117.5C 890.417,123.803 892.417,128.803 897.5,132.5C 904.022,133.914 909.356,131.914 913.5,126.5C 915.396,125.534 917.396,125.201 919.5,125.5C 917.007,135.989 910.34,141.322 899.5,141.5C 890.434,141.801 884.1,137.801 880.5,129.5C 879.167,123.5 879.167,117.5 880.5,111.5C 886.338,100.45 895.338,96.7838 907.5,100.5C 911.821,102.492 915.154,105.492 917.5,109.5 Z"/></g>
<g><path style="opacity:1" fill="#e9cdcc" d="M 315.5,99.5 C 315.843,101.483 315.176,102.817 313.5,103.5C 313.157,101.517 313.824,100.183 315.5,99.5 Z"/></g>
<g><path style="opacity:1" fill="#e9d0a1" d="M 523.5,111.5 C 523.5,113.5 523.5,115.5 523.5,117.5C 514.167,117.5 504.833,117.5 495.5,117.5C 495.785,123.734 498.451,128.734 503.5,132.5C 510.022,133.914 515.356,131.914 519.5,126.5C 521.396,125.534 523.396,125.201 525.5,125.5C 524.003,133.334 519.337,138.334 511.5,140.5C 497.936,143.724 489.269,138.724 485.5,125.5C 485.5,122.167 485.5,118.833 485.5,115.5C 485.201,113.396 485.534,111.396 486.5,109.5C 489.5,106.5 492.5,103.5 495.5,100.5C 503.089,98.8255 510.423,99.4922 517.5,102.5C 520.782,104.758 522.782,107.758 523.5,111.5 Z"/></g>
<g><path style="opacity:1" fill="#e3eae1" d="M 537.5,101.5 C 537.5,114.833 537.5,128.167 537.5,141.5C 536.17,135.202 535.503,128.535 535.5,121.5C 535.503,114.465 536.17,107.798 537.5,101.5 Z"/></g>
<g><path style="opacity:1" fill="#c4d1be" d="M 563.5,101.5 C 563.5,114.833 563.5,128.167 563.5,141.5C 562.17,135.202 561.503,128.535 561.5,121.5C 561.503,114.465 562.17,107.798 563.5,101.5 Z"/></g>
<g><path style="opacity:1" fill="#9cb492" d="M 633.5,127.5 C 629.671,126.931 626.337,127.598 623.5,129.5C 620.833,130.167 620.833,130.833 623.5,131.5C 629.074,133.453 635.074,134.12 641.5,133.5C 644.932,133.757 648.266,134.424 651.5,135.5C 655.359,147.115 651.359,154.448 639.5,157.5C 638.167,157.5 636.833,157.5 635.5,157.5C 628.833,157.5 622.167,157.5 615.5,157.5C 608.59,156.243 606.257,152.243 608.5,145.5C 610.543,143.792 612.21,141.792 613.5,139.5C 611.531,136.303 611.197,132.97 612.5,129.5C 613.265,128.388 614.265,127.721 615.5,127.5C 616.586,127.38 617.253,126.713 617.5,125.5C 617.253,124.287 616.586,123.62 615.5,123.5C 612.687,122.554 611.354,120.554 611.5,117.5C 611.5,114.833 611.5,112.167 611.5,109.5C 612.72,107.718 613.386,105.718 613.5,103.5C 616.012,103.577 618.012,102.577 619.5,100.5C 622.5,100.167 625.5,99.8333 628.5,99.5C 636.794,100.745 645.128,101.412 653.5,101.5C 653.5,103.5 653.5,105.5 653.5,107.5C 651.5,107.5 649.5,107.5 647.5,107.5C 649.096,118.568 644.43,125.235 633.5,127.5 Z"/></g>
<g><path style="opacity:1" fill="#fafcfa" d="M 635.5,111.5 C 635.5,113.5 635.5,115.5 635.5,117.5C 635.665,121.003 633.998,123.003 630.5,123.5C 626.353,122.357 624.02,119.69 623.5,115.5C 623.5,112.833 623.5,110.167 623.5,107.5C 626.896,102.252 630.562,102.252 634.5,107.5C 635.429,108.689 635.762,110.022 635.5,111.5 Z"/></g>
<g><path style="opacity:1" fill="#c6d7dc" d="M 745.5,101.5 C 745.5,114.833 745.5,128.167 745.5,141.5C 744.17,135.202 743.503,128.535 743.5,121.5C 743.503,114.465 744.17,107.798 745.5,101.5 Z"/></g>
<g><path style="opacity:1" fill="#cadade" d="M 771.5,101.5 C 771.5,114.833 771.5,128.167 771.5,141.5C 770.17,135.202 769.503,128.535 769.5,121.5C 769.503,114.465 770.17,107.798 771.5,101.5 Z"/></g>
<g><path style="opacity:1" fill="#fbf6f6" d="M 357.5,109.5 C 353.285,111.436 348.619,112.103 343.5,111.5C 344.43,105.553 347.764,103.22 353.5,104.5C 355.261,105.917 356.594,107.583 357.5,109.5 Z"/></g>
<g><path style="opacity:1" fill="#fdfbf7" d="M 511.5,111.5 C 506.167,111.5 500.833,111.5 495.5,111.5C 497.457,108.209 500.124,105.543 503.5,103.5C 505.334,104.754 507.334,105.421 509.5,105.5C 509.614,107.718 510.28,109.718 511.5,111.5 Z"/></g>
<g><path style="opacity:1" fill="#bcccb6" d="M 585.5,107.5 C 583.5,107.5 581.5,107.5 579.5,107.5C 579.97,106.307 580.97,105.64 582.5,105.5C 584.03,105.64 585.03,106.307 585.5,107.5 Z"/></g>
<g><path style="opacity:1" fill="#f6f9fa" d="M 895.5,103.5 C 901.233,103.238 904.567,105.905 905.5,111.5C 900.833,111.5 896.167,111.5 891.5,111.5C 891.966,108.376 893.299,105.71 895.5,103.5 Z"/></g>
<g><path style="opacity:1" fill="#fefdfb" d="M 463.5,115.5 C 463.5,118.833 463.5,122.167 463.5,125.5C 462.998,128.841 461.664,131.841 459.5,134.5C 457.5,134.833 455.5,135.167 453.5,135.5C 451.048,135.461 449.048,134.794 447.5,133.5C 447.5,125.5 447.5,117.5 447.5,109.5C 455.247,105.565 460.581,107.565 463.5,115.5 Z"/></g>
<g><path style="opacity:1" fill="#ecd2d1" d="M 299.5,107.5 C 301.176,108.183 301.843,109.517 301.5,111.5C 299.824,110.817 299.157,109.483 299.5,107.5 Z"/></g>
<g><path style="opacity:1" fill="#edd6d5" d="M 261.5,109.5 C 263.176,110.183 263.843,111.517 263.5,113.5C 261.824,112.817 261.157,111.483 261.5,109.5 Z"/></g>
<g><path style="opacity:1" fill="#e1b6b5" d="M 357.5,109.5 C 359.176,110.183 359.843,111.517 359.5,113.5C 353.729,114.113 348.396,113.446 343.5,111.5C 348.619,112.103 353.285,111.436 357.5,109.5 Z"/></g>
<g><path style="opacity:1" fill="#efdcb8" d="M 447.5,109.5 C 447.5,117.5 447.5,125.5 447.5,133.5C 446.176,129.893 445.509,125.893 445.5,121.5C 445.509,117.107 446.176,113.107 447.5,109.5 Z"/></g>
<g><path style="opacity:1" fill="#eed8b1" d="M 495.5,111.5 C 500.833,111.5 506.167,111.5 511.5,111.5C 509.257,112.812 506.59,113.478 503.5,113.5C 500.41,113.478 497.743,112.812 495.5,111.5 Z"/></g>
<g><path style="opacity:1" fill="#eff3ee" d="M 575.5,109.5 C 576.143,120.552 575.476,131.219 573.5,141.5C 572.857,130.448 573.524,119.781 575.5,109.5 Z"/></g>
<g><path style="opacity:1" fill="#c2d0bb" d="M 597.5,105.5 C 598.829,111.128 599.496,117.128 599.5,123.5C 599.496,129.872 598.829,135.872 597.5,141.5C 597.5,129.5 597.5,117.5 597.5,105.5 Z"/></g>
<g><path style="opacity:1" fill="#ccd8c7" d="M 5.5,109.5 C 5.5,114.833 5.5,120.167 5.5,125.5C 4.18834,123.257 3.52168,120.59 3.5,117.5C 3.52168,114.41 4.18834,111.743 5.5,109.5 Z"/></g>
<g><path style="opacity:1" fill="#f4e7cf" d="M 523.5,111.5 C 524.693,111.97 525.36,112.97 525.5,114.5C 525.36,116.03 524.693,117.03 523.5,117.5C 523.5,115.5 523.5,113.5 523.5,111.5 Z"/></g>
<g><path style="opacity:1" fill="#e8ede6" d="M 585.5,107.5 C 587.478,118.451 588.144,129.784 587.5,141.5C 585.522,130.549 584.856,119.216 585.5,107.5 Z"/></g>
<g><path style="opacity:1" fill="#bacab3" d="M 623.5,107.5 C 623.5,110.167 623.5,112.833 623.5,115.5C 622.252,114.666 621.585,113.333 621.5,111.5C 621.585,109.667 622.252,108.334 623.5,107.5 Z"/></g>
<g><path style="opacity:1" fill="#bfcfb9" d="M 635.5,111.5 C 636.693,111.97 637.36,112.97 637.5,114.5C 637.36,116.03 636.693,117.03 635.5,117.5C 635.5,115.5 635.5,113.5 635.5,111.5 Z"/></g>
<g><path style="opacity:1" fill="#d0dee3" d="M 677.5,107.5 C 677.5,112.167 677.5,116.833 677.5,121.5C 676.195,119.603 675.529,117.269 675.5,114.5C 675.529,111.731 676.195,109.397 677.5,107.5 Z"/></g>
<g><path style="opacity:1" fill="#eaf1f2" d="M 783.5,111.5 C 784.141,121.889 783.474,131.889 781.5,141.5C 780.859,131.111 781.526,121.111 783.5,111.5 Z"/></g>
<g><path style="opacity:1" fill="#edd4d3" d="M 217.5,109.5 C 218.812,111.743 219.478,114.41 219.5,117.5C 219.478,120.59 218.812,123.257 217.5,125.5C 217.5,120.167 217.5,114.833 217.5,109.5 Z"/></g>
<g><path style="opacity:1" fill="#e9cccb" d="M 283.5,113.5 C 283.843,115.483 283.176,116.817 281.5,117.5C 281.157,115.517 281.824,114.183 283.5,113.5 Z"/></g>
<g><path style="opacity:1" fill="#e9cccc" d="M 317.5,113.5 C 317.843,115.483 317.176,116.817 315.5,117.5C 315.157,115.517 315.824,114.183 317.5,113.5 Z"/></g>
<g><path style="opacity:1" fill="#d1dccd" d="M 611.5,109.5 C 611.5,112.167 611.5,114.833 611.5,117.5C 610.252,116.666 609.585,115.333 609.5,113.5C 609.585,111.667 610.252,110.334 611.5,109.5 Z"/></g>
<g><path style="opacity:1" fill="#cadadf" d="M 917.5,109.5 C 918.748,110.334 919.415,111.667 919.5,113.5C 919.415,115.333 918.748,116.666 917.5,117.5C 917.5,114.833 917.5,112.167 917.5,109.5 Z"/></g>
<g><path style="opacity:1" fill="#efdad9" d="M 291.5,115.5 C 293.176,116.183 293.843,117.517 293.5,119.5C 291.824,118.817 291.157,117.483 291.5,115.5 Z"/></g>
<g><path style="opacity:1" fill="#f9f1f1" d="M 371.5,117.5 C 363.231,119.47 354.565,120.136 345.5,119.5C 345.5,121.5 345.5,123.5 345.5,125.5C 343.631,123.365 342.964,120.698 343.5,117.5C 352.833,117.5 362.167,117.5 371.5,117.5 Z"/></g>
<g><path style="opacity:1" fill="#edd5d4" d="M 265.5,119.5 C 267.176,120.183 267.843,121.517 267.5,123.5C 265.824,122.817 265.157,121.483 265.5,119.5 Z"/></g>
<g><path style="opacity:1" fill="#e3bebd" d="M 333.5,115.5 C 333.5,118.833 333.5,122.167 333.5,125.5C 332.223,124.306 331.556,122.64 331.5,120.5C 331.556,118.36 332.223,116.694 333.5,115.5 Z"/></g>
<g><path style="opacity:1" fill="#efddbc" d="M 463.5,115.5 C 464.777,116.694 465.444,118.36 465.5,120.5C 465.444,122.64 464.777,124.306 463.5,125.5C 463.5,122.167 463.5,118.833 463.5,115.5 Z"/></g>
<g><path style="opacity:1" fill="#f5ead5" d="M 485.5,115.5 C 485.5,118.833 485.5,122.167 485.5,125.5C 484.223,124.306 483.556,122.64 483.5,120.5C 483.556,118.36 484.223,116.694 485.5,115.5 Z"/></g>
<g><path style="opacity:1" fill="#f5e9d5" d="M 475.5,123.5 C 475.843,125.483 475.176,126.817 473.5,127.5C 473.157,125.517 473.824,124.183 475.5,123.5 Z"/></g>
<g><path style="opacity:1" fill="#c4d2bd" d="M 615.5,123.5 C 616.586,123.62 617.253,124.287 617.5,125.5C 617.253,126.713 616.586,127.38 615.5,127.5C 615.5,126.167 615.5,124.833 615.5,123.5 Z"/></g>
<g><path style="opacity:1" fill="#e7c7c6" d="M 371.5,125.5 C 372.586,125.62 373.253,126.287 373.5,127.5C 373.253,128.713 372.586,129.38 371.5,129.5C 371.5,128.167 371.5,126.833 371.5,125.5 Z"/></g>
<g><path style="opacity:1" fill="#dee6da" d="M 633.5,127.5 C 630.663,129.402 627.329,130.069 623.5,129.5C 626.337,127.598 629.671,126.931 633.5,127.5 Z"/></g>
<g><path style="opacity:1" fill="#efdbda" d="M 285.5,127.5 C 285.843,129.483 285.176,130.817 283.5,131.5C 283.157,129.517 283.824,128.183 285.5,127.5 Z"/></g>
<g><path style="opacity:1" fill="#cfdac9" d="M 623.5,131.5 C 629.926,130.88 635.926,131.547 641.5,133.5C 635.074,134.12 629.074,133.453 623.5,131.5 Z"/></g>
<g><path style="opacity:1" fill="#eed7d6" d="M 297.5,131.5 C 299.176,132.183 299.843,133.517 299.5,135.5C 297.824,134.817 297.157,133.483 297.5,131.5 Z"/></g>
<g><path style="opacity:1" fill="#eed7d7" d="M 271.5,135.5 C 273.176,136.183 273.843,137.517 273.5,139.5C 271.824,138.817 271.157,137.483 271.5,135.5 Z"/></g>
<g><path style="opacity:1" fill="#edd6d5" d="M 281.5,137.5 C 281.843,139.483 281.176,140.817 279.5,141.5C 279.157,139.517 279.824,138.183 281.5,137.5 Z"/></g>
<g><path style="opacity:1" fill="#fafbfa" d="M 635.5,141.5 C 637.635,143.369 640.302,144.036 643.5,143.5C 644.586,143.62 645.253,144.287 645.5,145.5C 644.32,148.098 642.32,149.764 639.5,150.5C 633.5,151.833 627.5,151.833 621.5,150.5C 620.388,149.735 619.721,148.735 619.5,147.5C 619.5,146.167 619.5,144.833 619.5,143.5C 624.396,141.554 629.729,140.887 635.5,141.5 Z"/></g>
<g><path style="opacity:1" fill="#d6e0d2" d="M 635.5,141.5 C 638.698,140.964 641.365,141.631 643.5,143.5C 640.302,144.036 637.635,143.369 635.5,141.5 Z"/></g>
<g><path style="opacity:1" fill="#dae5e9" d="M 699.5,141.5 C 703.5,141.5 707.5,141.5 711.5,141.5C 709.952,142.794 707.952,143.461 705.5,143.5C 703.048,143.461 701.048,142.794 699.5,141.5 Z"/></g>
<g><path style="opacity:1" fill="#c7d4c1" d="M 619.5,143.5 C 619.5,144.833 619.5,146.167 619.5,147.5C 618.414,147.38 617.747,146.713 617.5,145.5C 617.747,144.287 618.414,143.62 619.5,143.5 Z"/></g>
<g><path style="opacity:1" fill="#cdd9c8" d="M 25.5,149.5 C 27.4832,149.157 28.8166,149.824 29.5,151.5C 27.5168,151.843 26.1834,151.176 25.5,149.5 Z"/></g>
<g><path style="opacity:1" fill="#e8c9c7" d="M 169.5,149.5 C 171.483,149.157 172.817,149.824 173.5,151.5C 171.517,151.843 170.183,151.176 169.5,149.5 Z"/></g>
<g><path style="opacity:1" fill="#a5c0c9" d="M 145.5,179.5 C 145.5,184.833 145.5,190.167 145.5,195.5C 144.18,205.13 139.513,212.797 131.5,218.5C 118.112,225.055 104.779,225.055 91.5,218.5C 88.5,215.5 85.5,212.5 82.5,209.5C 80.2561,205.686 78.5894,201.686 77.5,197.5C 78.0356,194.302 77.369,191.635 75.5,189.5C 76.2672,172.99 84.2672,161.324 99.5,154.5C 119.25,149.963 134.25,156.296 144.5,173.5C 145.466,175.396 145.799,177.396 145.5,179.5 Z"/></g>
<g><path style="opacity:1" fill="#b0c3a8" d="M 615.5,157.5 C 622.167,157.5 628.833,157.5 635.5,157.5C 635.5,158.167 635.5,158.833 635.5,159.5C 628.416,160.126 621.75,159.459 615.5,157.5 Z"/></g>
<g><path style="opacity:1" fill="#d1dcce" d="M 635.5,157.5 C 636.833,157.5 638.167,157.5 639.5,157.5C 638.817,159.176 637.483,159.843 635.5,159.5C 635.5,158.833 635.5,158.167 635.5,157.5 Z"/></g>
<g><path style="opacity:1" fill="#c3d5db" d="M 145.5,179.5 C 146.812,181.743 147.478,184.41 147.5,187.5C 147.478,190.59 146.812,193.257 145.5,195.5C 145.5,190.167 145.5,184.833 145.5,179.5 Z"/></g>
<g><path style="opacity:1" fill="#c4d5db" d="M 75.5,189.5 C 77.369,191.635 78.0356,194.302 77.5,197.5C 75.631,195.365 74.9644,192.698 75.5,189.5 Z"/></g>
</svg>
